<?xml version="1.0" ?>
<!DOCTYPE svg  PUBLIC '-//W3C//DTD SVG 1.1//EN'  'http://www.w3.org/Graphics/SVG/1.1/DTD/svg11.dtd'>
<!-- Uploaded to: SVG Repo, www.svgrepo.com, Generator: SVG Repo Mixer Tools -->
<svg fill="#000000" width="800px" height="800px" viewBox="0 0 64 64" enable-background="new 0 0 64 64" version="1.1" xml:space="preserve" xmlns="http://www.w3.org/2000/svg" xmlns:xlink="http://www.w3.org/1999/xlink">
<g id="grid"/>
<g id="Layer_2">
<g>
<g>
<path d="M52.38,55.26H11.62c-6.002,0-10-1.296-10-7.62V23.6c0-4.231,1.798-6.51,5.8-7.29V12.7h8.83v3.279h5.641l2.32-7.239H39.79     l2.32,7.239H52.38c6.002,0,10,1.296,10,7.62v24.04C62.38,53.964,58.382,55.26,52.38,55.26z M9.42,14.7v3.336l-0.868,0.115     C4.911,18.635,3.62,20.061,3.62,23.6v24.04c0,3.728,1.237,5.62,8,5.62h40.76c6.763,0,8-1.893,8-5.62V23.6     c0-3.728-1.237-5.62-8-5.62H40.65l-2.32-7.239H25.669l-2.32,7.239h-9.1V14.7H9.42z M32,51.37c-8.133,0-14.75-6.617-14.75-14.75     S23.867,21.87,32,21.87s14.75,6.617,14.75,14.75S40.133,51.37,32,51.37z M32,23.87c-7.03,0-12.75,5.72-12.75,12.75     S24.97,49.37,32,49.37s12.75-5.72,12.75-12.75S39.03,23.87,32,23.87z M37.676,18.729H26.324l1.765-6.72h7.823L37.676,18.729z      M28.917,16.729h6.167l-0.715-2.72h-4.737L28.917,16.729z"/>
</g>
<g>
<path d="M37.676,18.729H26.324l1.765-6.72h7.823L37.676,18.729z M28.917,16.729h6.167l-0.715-2.72h-4.737L28.917,16.729z"/>
</g>
<g>
<path d="M32,51.37c-8.133,0-14.75-6.617-14.75-14.75S23.867,21.87,32,21.87s14.75,6.617,14.75,14.75S40.133,51.37,32,51.37z      M32,23.87c-7.03,0-12.75,5.72-12.75,12.75S24.97,49.37,32,49.37s12.75-5.72,12.75-12.75S39.03,23.87,32,23.87z"/>
</g>
<g>
<path d="M37.676,18.729H26.324l1.765-6.72h7.823L37.676,18.729z M28.917,16.729h6.167l-0.715-2.72h-4.737L28.917,16.729z"/>
</g>
<g>
<path d="M32,51.37c-8.133,0-14.75-6.617-14.75-14.75S23.867,21.87,32,21.87s14.75,6.617,14.75,14.75S40.133,51.37,32,51.37z      M32,23.87c-7.03,0-12.75,5.72-12.75,12.75S24.97,49.37,32,49.37s12.75-5.72,12.75-12.75S39.03,23.87,32,23.87z"/>
</g>
<g>
<path d="M32,45.212c-4.841,0-8.78-3.938-8.78-8.779c0-4.841,3.939-8.78,8.78-8.78s8.78,3.939,8.78,8.78     C40.78,41.273,36.841,45.212,32,45.212z M32,29.652c-3.739,0-6.78,3.042-6.78,6.78c0,3.738,3.042,6.779,6.78,6.779     s6.78-3.041,6.78-6.779C38.78,32.694,35.739,29.652,32,29.652z"/>
</g>
<g>
<path d="M56.917,27.568H46.333v-6.73h10.583V27.568z M48.333,25.568h6.583v-2.73h-6.583V25.568z"/>
</g>
<g>
<path d="M11.583,25.256c-1.522,0-2.761-1.238-2.761-2.761s1.238-2.761,2.761-2.761s2.761,1.238,2.761,2.761     S13.106,25.256,11.583,25.256z M11.583,21.734c-0.419,0-0.761,0.341-0.761,0.761s0.341,0.761,0.761,0.761     s0.761-0.341,0.761-0.761S12.003,21.734,11.583,21.734z"/>
</g>
</g>
</g>
<g id="Layer_3"/>
<g id="Layer_4"/>
<g id="Layer_5"/>
<g id="Layer_6"/>
<g id="Layer_7"/>
<g id="Layer_8"/>
<g id="Layer_9"/>
<g id="Layer_10"/>
<g id="Layer_37"/>
<g id="Layer_11"/>
<g id="Layer_12"/>
<g id="Layer_13"/>
<g id="Layer_14"/>
<g id="Layer_16"/>
<g id="Layer_17"/>
<g id="Layer_18"/>
<g id="Layer_19"/>
<g id="Layer_20"/>
<g id="Layer_21"/>
<g id="Layer_22"/>
<g id="Layer_23"/>
<g id="Layer_24"/>
<g id="Layer_25"/>
</svg>